<svg xmlns="http://www.w3.org/2000/svg" xmlns:xlink="http://www.w3.org/1999/xlink" preserveAspectRatio="xMidYMid" width="185.69" height="93.094" viewBox="0 0 185.69 93.094">
  <defs>
    <style>
      .cls-1 {
        fill: #fff;
      }

      .cls-1, .cls-2 {
        fill-rule: evenodd;
      }

      .cls-2 {
        fill: #ff4b27;
      }
    </style>
  </defs>
  <g>
    <path d="M146.660,13.789 L146.356,9.692 L139.583,9.692 L139.583,35.476 L143.525,36.230 L143.525,40.628 L128.259,40.628 L128.259,36.230 L132.202,35.476 L132.202,9.692 L125.454,9.692 L125.150,13.789 L119.514,13.789 L119.514,4.038 L152.321,4.038 L152.321,13.789 L146.660,13.789 ZM100.394,41.156 C95.423,41.156 91.409,39.405 88.350,35.903 C85.292,32.402 83.763,27.971 83.763,22.609 L83.763,22.056 C83.763,16.729 85.288,12.306 88.338,8.788 C91.387,5.269 95.398,3.510 100.369,3.510 C105.356,3.510 109.396,5.269 112.488,8.788 C115.580,12.306 117.126,16.729 117.126,22.056 L117.126,22.609 C117.126,27.971 115.584,32.402 112.501,35.903 C109.417,39.405 105.381,41.156 100.394,41.156 ZM109.771,22.006 C109.771,18.220 108.979,15.146 107.395,12.783 C105.811,10.421 103.469,9.240 100.369,9.240 C97.268,9.240 94.955,10.413 93.431,12.758 C91.905,15.104 91.143,18.186 91.143,22.006 L91.143,22.609 C91.143,26.463 91.914,29.567 93.456,31.920 C94.998,34.274 97.310,35.451 100.394,35.451 C103.511,35.451 105.853,34.274 107.420,31.920 C108.987,29.567 109.771,26.463 109.771,22.609 L109.771,22.006 ZM64.870,36.230 L68.813,35.476 L68.813,25.424 L53.800,25.424 L53.800,35.476 L57.743,36.230 L57.743,40.628 L42.502,40.628 L42.502,36.230 L46.419,35.476 L46.419,9.215 L42.502,8.461 L42.502,4.038 L57.743,4.038 L57.743,8.461 L53.800,9.215 L53.800,19.770 L68.813,19.770 L68.813,9.215 L64.870,8.461 L64.870,4.038 L68.813,4.038 L76.168,4.038 L80.111,4.038 L80.111,8.461 L76.168,9.215 L76.168,35.476 L80.111,36.230 L80.111,40.628 L64.870,40.628 L64.870,36.230 ZM26.692,19.317 C30.753,20.440 33.833,21.923 35.931,23.765 C38.028,25.608 39.077,28.029 39.077,31.028 C39.077,34.161 37.830,36.632 35.337,38.441 C32.843,40.251 29.557,41.156 25.479,41.156 C22.564,41.156 19.931,40.695 17.581,39.773 C15.230,38.852 13.271,37.579 11.704,35.954 L11.704,28.314 L17.416,28.314 L18.200,33.516 C18.941,34.119 19.948,34.618 21.220,35.011 C22.492,35.405 23.912,35.602 25.479,35.602 C27.501,35.602 29.039,35.191 30.092,34.370 C31.145,33.550 31.672,32.452 31.672,31.078 C31.672,29.671 31.170,28.540 30.168,27.686 C29.165,26.831 27.408,26.027 24.898,25.273 C20.534,24.017 17.231,22.526 14.990,20.800 C12.749,19.075 11.628,16.712 11.628,13.713 C11.628,10.748 12.892,8.323 15.420,6.438 C17.947,4.553 21.123,3.586 24.948,3.535 C27.779,3.535 30.357,3.963 32.683,4.817 C35.008,5.671 36.962,6.811 38.547,8.235 L38.547,15.724 L33.011,15.724 L32.051,10.697 C31.410,10.295 30.475,9.944 29.245,9.642 C28.015,9.340 26.709,9.190 25.328,9.190 C23.306,9.190 21.742,9.613 20.639,10.459 C19.535,11.305 18.984,12.398 18.984,13.738 C18.984,14.978 19.561,15.996 20.715,16.792 C21.869,17.588 23.862,18.429 26.692,19.317 Z" class="cls-1"/>
    <path d="M135.598,53.078 L135.598,92.436 L126.382,92.436 L107.762,61.579 L107.572,61.611 L107.572,85.981 L112.512,86.926 L112.512,92.436 L93.416,92.436 L93.416,86.926 L98.324,85.981 L98.324,53.078 L93.416,52.133 L93.416,46.592 L98.324,46.592 L107.572,46.592 L126.192,77.449 L126.382,77.417 L126.382,53.078 L121.442,52.133 L121.442,46.592 L135.598,46.592 L140.538,46.592 L140.538,52.133 L135.598,53.078 ZM85.104,77.008 C85.104,82.151 83.399,86.118 79.989,88.910 C76.580,91.702 72.109,93.097 66.578,93.097 C61.068,93.097 56.618,91.702 53.230,88.910 C49.841,86.118 48.147,82.151 48.147,77.008 L48.147,53.078 L43.239,52.133 L43.239,46.592 L48.147,46.592 L57.394,46.592 L62.334,46.592 L62.334,52.133 L57.394,53.078 L57.394,77.008 C57.394,80.030 58.212,82.293 59.848,83.793 C61.484,85.294 63.728,86.044 66.578,86.044 C69.470,86.044 71.740,85.300 73.387,83.809 C75.033,82.319 75.857,80.052 75.857,77.008 L75.857,53.078 L70.948,52.133 L70.948,46.592 L90.044,46.592 L90.044,52.133 L85.104,53.078 L85.104,77.008 ZM21.056,93.097 C14.828,93.097 9.761,91.025 5.855,86.879 C1.949,82.733 -0.004,77.344 -0.004,70.710 L-0.004,69.136 C-0.004,62.272 1.923,56.689 5.776,52.385 C9.629,48.082 14.659,45.930 20.866,45.930 C24.476,45.930 27.774,46.503 30.762,47.646 C33.749,48.791 36.235,50.339 38.220,52.291 L38.220,61.516 L31.379,61.516 L30.081,55.376 C29.236,54.663 28.123,54.091 26.740,53.660 C25.357,53.230 23.768,53.015 21.974,53.015 C17.941,53.015 14.806,54.495 12.569,57.455 C10.331,60.414 9.212,64.287 9.212,69.073 L9.212,70.710 C9.212,75.370 10.309,79.091 12.505,81.872 C14.701,84.654 17.868,86.044 22.006,86.044 C23.863,86.044 25.368,85.887 26.518,85.572 C27.669,85.257 28.571,84.890 29.226,84.470 L29.226,76.693 L22.639,76.189 L22.639,69.734 L38.505,69.734 L38.505,87.335 C37.006,88.805 34.820,90.133 31.950,91.318 C29.078,92.504 25.447,93.097 21.056,93.097 Z" class="cls-1"/>
    <path d="M183.645,5.704 C181.751,2.896 179.160,1.116 175.871,0.364 C172.539,-0.397 169.427,0.080 166.532,1.793 C163.637,3.508 161.821,5.958 161.085,9.145 C160.721,10.719 160.511,13.144 160.455,16.422 C160.398,19.700 160.387,23.065 160.423,26.515 C160.474,30.276 160.454,34.913 160.363,40.427 C160.272,45.942 159.937,52.796 159.358,60.988 L164.167,62.087 C167.225,54.548 169.931,48.247 172.285,43.184 C174.639,38.122 176.664,33.911 178.362,30.550 C180.148,26.992 181.667,23.884 182.917,21.228 C184.166,18.571 184.987,16.395 185.380,14.697 C186.116,11.510 185.537,8.512 183.645,5.704 ZM167.689,74.300 C165.826,71.455 163.291,69.667 160.086,68.934 C156.838,68.192 153.751,68.696 150.826,70.446 C147.901,72.197 146.075,74.646 145.348,77.792 C144.620,80.938 145.192,83.913 147.065,86.716 C148.938,89.519 151.498,91.292 154.746,92.034 C157.951,92.767 161.012,92.278 163.928,90.570 C166.844,88.861 168.665,86.433 169.393,83.287 C170.120,80.141 169.552,77.145 167.689,74.300 Z" class="cls-2"/>
  </g>
</svg>
